<svg width="18" height="14" viewBox="0 0 18 14" fill="none" xmlns="http://www.w3.org/2000/svg">
<path d="M15.6667 0.333496H2.33341C1.41675 0.333496 0.675081 1.0835 0.675081 2.00016L0.666748 12.0002C0.666748 12.9168 1.41675 13.6668 2.33341 13.6668H15.6667C16.5834 13.6668 17.3334 12.9168 17.3334 12.0002V2.00016C17.3334 1.0835 16.5834 0.333496 15.6667 0.333496ZM15.3334 3.87516L9.44175 7.5585C9.17508 7.72516 8.82508 7.72516 8.55842 7.5585L2.66675 3.87516C2.58319 3.82825 2.51001 3.76488 2.45166 3.68887C2.3933 3.61287 2.35097 3.52581 2.32723 3.43297C2.30349 3.34013 2.29883 3.24344 2.31355 3.14875C2.32826 3.05406 2.36203 2.96334 2.41282 2.88208C2.4636 2.80082 2.53035 2.73071 2.60902 2.67599C2.68769 2.62127 2.77664 2.58309 2.87049 2.56374C2.96435 2.5444 3.06115 2.5443 3.15504 2.56345C3.24894 2.5826 3.33797 2.62061 3.41675 2.67516L9.00008 6.16683L14.5834 2.67516C14.6622 2.62061 14.7512 2.5826 14.8451 2.56345C14.939 2.5443 15.0358 2.5444 15.1297 2.56374C15.2235 2.58309 15.3125 2.62127 15.3911 2.67599C15.4698 2.73071 15.5366 2.80082 15.5873 2.88208C15.6381 2.96334 15.6719 3.05406 15.6866 3.14875C15.7013 3.24344 15.6967 3.34013 15.6729 3.43297C15.6492 3.52581 15.6069 3.61287 15.5485 3.68887C15.4902 3.76488 15.417 3.82825 15.3334 3.87516Z" fill="#BDBDBD"/>
</svg>
