<svg width="14" height="20" viewBox="0 0 14 20" fill="none" xmlns="http://www.w3.org/2000/svg">
<path d="M7 0.916748C3.13 0.916748 0 3.91633 0 7.62508C0 11.6213 4.42 17.1317 6.24 19.2305C6.64 19.6905 7.37 19.6905 7.77 19.2305C9.58 17.1317 14 11.6213 14 7.62508C14 3.91633 10.87 0.916748 7 0.916748ZM7 10.0209C6.33696 10.0209 5.70107 9.7685 5.23223 9.31919C4.76339 8.86989 4.5 8.2605 4.5 7.62508C4.5 6.98967 4.76339 6.38028 5.23223 5.93097C5.70107 5.48167 6.33696 5.22925 7 5.22925C7.66304 5.22925 8.29893 5.48167 8.76777 5.93097C9.23661 6.38028 9.5 6.98967 9.5 7.62508C9.5 8.2605 9.23661 8.86989 8.76777 9.31919C8.29893 9.7685 7.66304 10.0209 7 10.0209V10.0209Z" fill="#BDBDBD"/>
</svg>
